# xmcd
#
# Track frame offsets: 
#        150
#        19800
#        54000
#        70350
#        91050
#        140100
#
# Disc length: 2135 seconds
#
# Revision: 0
# Processed by: cddbd v1.5.2PL0 Copyright (c) Steve Scherf et al.
# Submitted via: ExactAudioCopy v1.0b4
#
DISCID=4a085506
DTITLE=Mute Swimmer - orientation
DYEAR=2011
DGENRE=Songwriter
TTITLE0=The Point of Orientation
TTITLE1=A Melody (Strands 1-3)
TTITLE2=I Went to Write Blue for J.C.
TTITLE3=I Mark Time (Part I)
TTITLE4=I Mark Time (Part II)
TTITLE5=Same
EXTD=
EXTT0=
EXTT1=
EXTT2=
EXTT3=
EXTT4=
EXTT5=
PLAYORDER=
